<svg width="229" height="201" viewBox="0 0 229 201" fill="none" xmlns="http://www.w3.org/2000/svg">
<path d="M229 135.758C229 174.877 147.325 182.135 94.9087 182.135C42.4921 182.135 0 150.423 0 111.305C0 72.1862 81.6747 64.9277 134.091 64.9277C158.472 149.25 229 96.6395 229 135.758Z" fill="#CCC88A" fill-opacity="0.4"/>
<path fill-rule="evenodd" clip-rule="evenodd" d="M107.535 58.1836C67.7062 58.1836 60.9776 65.0911 60.9776 120.655C60.9776 182.859 59.9986 199.001 69.9511 199.001C79.8973 199.001 96.1418 171.697 107.535 171.697C118.928 171.697 135.172 199.001 145.119 199.001C155.071 199.001 154.092 182.859 154.092 120.655C154.092 65.0911 147.363 58.1836 107.535 58.1836Z" stroke="#CCC88A" stroke-width="3.48289" stroke-linecap="round" stroke-linejoin="round"/>
<path d="M22.3239 37.5659H24.6204V39.7899C24.6204 41.018 25.6487 42.0138 26.9169 42.0138C28.1851 42.0138 29.2135 41.018 29.2135 39.7899V37.5659H31.51C32.7782 37.5659 33.8065 36.57 33.8065 35.3419C33.8065 34.1137 32.7782 33.1179 31.51 33.1179H29.2135V30.8939C29.2135 29.6658 28.1851 28.6699 26.9169 28.6699C25.6487 28.6699 24.6204 29.6658 24.6204 30.8939V33.1179H22.3239C21.0557 33.1179 20.0273 34.1137 20.0273 35.3419C20.0273 36.57 21.0557 37.5659 22.3239 37.5659Z" fill="#CCC88A"/>
<path d="M59.9351 20.519H64.1435V24.5946C64.1435 26.8452 66.028 28.6701 68.352 28.6701C70.6761 28.6701 72.5605 26.8452 72.5605 24.5946V20.519H76.769C79.0931 20.519 80.9775 18.6941 80.9775 16.4435C80.9775 14.1928 79.0931 12.3679 76.769 12.3679H72.5605V8.29235C72.5605 6.04171 70.6761 4.2168 68.352 4.2168C66.028 4.2168 64.1435 6.04171 64.1435 8.29235V12.3679H59.9351C57.611 12.3679 55.7266 14.1928 55.7266 16.4435C55.7266 18.6941 57.611 20.519 59.9351 20.519Z" fill="#CCC88A"/>
<path d="M119.144 43.2846H123.353V47.3602C123.353 49.6108 125.237 51.4357 127.561 51.4357C129.885 51.4357 131.77 49.6108 131.77 47.3602V43.2846H135.978C138.302 43.2846 140.186 41.4597 140.186 39.2091C140.186 36.9584 138.302 35.1335 135.978 35.1335H131.77V31.058C131.77 28.8073 129.885 26.9824 127.561 26.9824C125.237 26.9824 123.353 28.8073 123.353 31.058V35.1335H119.144C116.82 35.1335 114.936 36.9584 114.936 39.2091C114.936 41.4597 116.82 43.2846 119.144 43.2846Z" fill="#CCC88A"/>
<path d="M158.326 16.3022H162.534V20.3778C162.534 22.6284 164.419 24.4533 166.743 24.4533C169.067 24.4533 170.951 22.6284 170.951 20.3778V16.3022H175.16C177.484 16.3022 179.368 14.4773 179.368 12.2267C179.368 9.97602 177.484 8.1511 175.16 8.1511H170.951V4.07555C170.951 1.82492 169.067 0 166.743 0C164.419 0 162.534 1.82492 162.534 4.07555V8.1511H158.326C156.002 8.1511 154.117 9.97602 154.117 12.2267C154.117 14.4773 156.002 16.3022 158.326 16.3022Z" fill="#CCC88A"/>
<path d="M44.0915 60.3315H46.388V62.5555C46.388 63.7836 47.4163 64.7795 48.6845 64.7795C49.9527 64.7795 50.981 63.7836 50.981 62.5555V60.3315H53.2776C54.5458 60.3315 55.5741 59.3357 55.5741 58.1075C55.5741 56.8794 54.5458 55.8835 53.2776 55.8835H50.981V53.6595C50.981 52.4314 49.9527 51.4355 48.6845 51.4355C47.4163 51.4355 46.388 52.4314 46.388 53.6595V55.8835H44.0915C42.8232 55.8835 41.7949 56.8794 41.7949 58.1075C41.7949 59.3357 42.8232 60.3315 44.0915 60.3315Z" fill="#EBE9D0"/>
<path d="M96.3356 24.0756H98.6321V26.2996C98.6321 27.5278 99.6604 28.5236 100.929 28.5236C102.197 28.5236 103.225 27.5278 103.225 26.2996V24.0756H105.522C106.79 24.0756 107.818 23.0798 107.818 21.8516C107.818 20.6235 106.79 19.6277 105.522 19.6277H103.225V17.4037C103.225 16.1755 102.197 15.1797 100.929 15.1797C99.6604 15.1797 98.6321 16.1755 98.6321 17.4037V19.6277H96.3356C95.0674 19.6277 94.0391 20.6235 94.0391 21.8516C94.0391 23.0798 95.0674 24.0756 96.3356 24.0756Z" fill="#EBE9D0"/>
<path d="M156.414 56.9584H158.71V59.1824C158.71 60.4106 159.739 61.4064 161.007 61.4064C162.275 61.4064 163.303 60.4106 163.303 59.1824V56.9584H165.6C166.868 56.9584 167.896 55.9626 167.896 54.7345C167.896 53.5063 166.868 52.5105 165.6 52.5105H163.303V50.2865C163.303 49.0583 162.275 48.0625 161.007 48.0625C159.739 48.0625 158.71 49.0583 158.71 50.2865V52.5105H156.414C155.146 52.5105 154.117 53.5063 154.117 54.7345C154.117 55.9626 155.146 56.9584 156.414 56.9584Z" fill="#EBE9D0"/>
</svg>
