<svg width="229" height="200" viewBox="0 0 229 200" fill="none" xmlns="http://www.w3.org/2000/svg">
<path d="M21.4518 38.7916H23.7483V41.0881C23.7483 42.3563 24.7767 43.3847 26.0449 43.3847C27.3131 43.3847 28.3414 42.3563 28.3414 41.0881V38.7916H30.6379C31.9061 38.7916 32.9345 37.7633 32.9345 36.4951C32.9345 35.2269 31.9061 34.1985 30.6379 34.1985H28.3414V31.902C28.3414 30.6338 27.3131 29.6055 26.0449 29.6055C24.7767 29.6055 23.7483 30.6338 23.7483 31.902V34.1985H21.4518C20.1836 34.1985 19.1553 35.2269 19.1553 36.4951C19.1553 37.7633 20.1836 38.7916 21.4518 38.7916Z" fill="#CCC88A" fill-opacity="0.4"/>
<path d="M59.063 21.1875H63.2715V25.396C63.2715 27.72 65.1559 29.6045 67.48 29.6045C69.804 29.6045 71.6885 27.72 71.6885 25.396V21.1875H75.8969C78.221 21.1875 80.1054 19.303 80.1054 16.979C80.1054 14.6549 78.221 12.7705 75.8969 12.7705H71.6885V8.56201C71.6885 6.23796 69.804 4.35352 67.48 4.35352C65.1559 4.35352 63.2715 6.23796 63.2715 8.56201V12.7705H59.063C56.7389 12.7705 54.8545 14.6549 54.8545 16.979C54.8545 19.303 56.7389 21.1875 59.063 21.1875Z" fill="#CCC88A" fill-opacity="0.4"/>
<path d="M118.273 44.6972H122.481V48.9057C122.481 51.2298 124.366 53.1142 126.69 53.1142C129.014 53.1142 130.898 51.2298 130.898 48.9057V44.6972H135.107C137.431 44.6972 139.315 42.8128 139.315 40.4888C139.315 38.1647 137.431 36.2803 135.107 36.2803H130.898V32.0718C130.898 29.7477 129.014 27.8633 126.69 27.8633C124.366 27.8633 122.481 29.7477 122.481 32.0718V36.2803H118.273C115.949 36.2803 114.064 38.1647 114.064 40.4888C114.064 42.8128 115.949 44.6972 118.273 44.6972Z" fill="#CCC88A" fill-opacity="0.4"/>
<path d="M157.455 16.834H161.663V21.0425C161.663 23.3665 163.548 25.2509 165.872 25.2509C168.196 25.2509 170.08 23.3665 170.08 21.0425V16.834H174.289C176.613 16.834 178.497 14.9495 178.497 12.6255C178.497 10.3014 176.613 8.41698 174.289 8.41698H170.08V4.20849C170.08 1.88444 168.196 0 165.872 0C163.548 0 161.663 1.88444 161.663 4.20849V8.41698H157.455C155.131 8.41698 153.246 10.3014 153.246 12.6255C153.246 14.9495 155.131 16.834 157.455 16.834Z" fill="#CCC88A" fill-opacity="0.4"/>
<path d="M43.2194 62.2994H45.5159V64.5959C45.5159 65.8641 46.5442 66.8925 47.8124 66.8925C49.0807 66.8925 50.109 65.8641 50.109 64.5959V62.2994H52.4055C53.6737 62.2994 54.702 61.2711 54.702 60.0029C54.702 58.7347 53.6737 57.7063 52.4055 57.7063H50.109V55.4098C50.109 54.1416 49.0807 53.1133 47.8124 53.1133C46.5442 53.1133 45.5159 54.1416 45.5159 55.4098V57.7063H43.2194C41.9512 57.7063 40.9229 58.7347 40.9229 60.0029C40.9229 61.2711 41.9512 62.2994 43.2194 62.2994Z" fill="#EBE9D0"/>
<path fill-rule="evenodd" clip-rule="evenodd" d="M141.815 180.438H77.6082C54.0236 180.438 35.9304 172.04 41.0697 138.239L47.0539 92.4315C50.222 75.566 61.1342 69.1113 70.7088 69.1113H148.995C158.711 69.1113 168.99 76.0519 172.65 92.4315L178.635 138.239C182.999 168.222 165.399 180.438 141.815 180.438Z" stroke="#CCC88A" stroke-width="5.22433" stroke-linecap="round" stroke-linejoin="round"/>
<path d="M142.87 67.4452C142.87 49.3527 127.993 34.6858 109.641 34.6858V34.6858C100.803 34.6489 92.3152 38.084 86.053 44.2316C79.7907 50.3792 76.2704 58.7328 76.2705 67.4452V67.4452" stroke="#CCC88A" stroke-width="5.22433" stroke-linecap="round" stroke-linejoin="round"/>
<path d="M132.45 101.593H132.098" stroke="#CCC88A" stroke-width="5.22433" stroke-linecap="round" stroke-linejoin="round"/>
<path d="M87.6043 101.593H87.2523" stroke="#CCC88A" stroke-width="5.22433" stroke-linecap="round" stroke-linejoin="round"/>
<path d="M229 113.193C229 153.588 147.325 161.083 94.9087 161.083C42.4921 161.083 0 128.337 0 87.9425C0 47.548 81.6747 40.0527 134.091 40.0527C158.472 127.125 229 72.7989 229 113.193Z" fill="#CCCC88" fill-opacity="0.26"/>
</svg>
